HIERARCHY
ROOT Model
{
	OFFSET 0 0 0
	CHANNELS 6 Xposition Yposition Zposition Zrotation Xrotation Yrotation
	JOINT Model1
	{
		OFFSET 0 -2.25479 2.99384
		CHANNELS 3 Zrotation Xrotation Yrotation
		JOINT Model2
		{
			OFFSET 12.111 0 0
			CHANNELS 3 Zrotation Xrotation Yrotation
			JOINT Model3
			{
				OFFSET 11.5502 0 0
				CHANNELS 3 Zrotation Xrotation Yrotation
				JOINT Model4
				{
					OFFSET 11.781 0 0
					CHANNELS 3 Zrotation Xrotation Yrotation
					JOINT Model5
					{
						OFFSET 20.0601 0 0
						CHANNELS 3 Zrotation Xrotation Yrotation
						JOINT Model6
						{
							OFFSET 11.1962 0 0
							CHANNELS 3 Zrotation Xrotation Yrotation
							End Site
							{
								OFFSET 0 0 0
							}
						}
					}
					JOINT Model7
					{
						OFFSET 10.8223 0.417534 3.51114
						CHANNELS 3 Zrotation Xrotation Yrotation
						JOINT Model8
						{
							OFFSET -6.07944 0 0
							CHANNELS 3 Zrotation Xrotation Yrotation
							JOINT Model9
							{
								OFFSET -0.27742 10.39 -0.051239
								CHANNELS 3 Zrotation Xrotation Yrotation
								JOINT Model10
								{
									OFFSET -3.4391 -0.282043 1.86678
									CHANNELS 3 Zrotation Xrotation Yrotation
									JOINT Model11
									{
										OFFSET 13.0269 0 0
										CHANNELS 3 Zrotation Xrotation Yrotation
										JOINT Model12
										{
											OFFSET 10.8866 0 0
											CHANNELS 3 Zrotation Xrotation Yrotation
											JOINT Model13
											{
												OFFSET 16.7317 0 0
												CHANNELS 3 Zrotation Xrotation Yrotation
												JOINT Model14
												{
													OFFSET 11.8292 0 0
													CHANNELS 3 Zrotation Xrotation Yrotation
													JOINT Model15
													{
														OFFSET 4.82751 -3.73566 -0.836517
														CHANNELS 3 Zrotation Xrotation Yrotation
														JOINT Model16
														{
															OFFSET 3.75311 -0.0582886 -0.0186462
															CHANNELS 3 Zrotation Xrotation Yrotation
															JOINT Model17
															{
																OFFSET 2.88688 0.0192337 0.014801
																CHANNELS 3 Zrotation Xrotation Yrotation
																End Site
																{
																	OFFSET 0 0 0
																}
															}
														}
													}
													JOINT Model18
													{
														OFFSET 9.72197 -3.06458 0.23877
														CHANNELS 3 Zrotation Xrotation Yrotation
														JOINT Model19
														{
															OFFSET 4.61131 0 0
															CHANNELS 3 Zrotation Xrotation Yrotation
															JOINT Model20
															{
																OFFSET 2.8969 -7.62939e-006 0
																CHANNELS 3 Zrotation Xrotation Yrotation
																End Site
																{
																	OFFSET 0 0 0
																}
															}
														}
													}
													JOINT Model21
													{
														OFFSET 9.54431 -0.745064 0.588943
														CHANNELS 3 Zrotation Xrotation Yrotation
														JOINT Model22
														{
															OFFSET 5.33978 0 0
															CHANNELS 3 Zrotation Xrotation Yrotation
															JOINT Model23
															{
																OFFSET 3.03619 7.62939e-006 0
																CHANNELS 3 Zrotation Xrotation Yrotation
																End Site
																{
																	OFFSET 0 0 0
																}
															}
														}
													}
													JOINT Model24
													{
														OFFSET 9.47759 1.51286 0.485123
														CHANNELS 3 Zrotation Xrotation Yrotation
														JOINT Model25
														{
															OFFSET 4.96136 7.62939e-006 0
															CHANNELS 3 Zrotation Xrotation Yrotation
															JOINT Model26
															{
																OFFSET 2.51966 0 0
																CHANNELS 3 Zrotation Xrotation Yrotation
																End Site
																{
																	OFFSET 0 0 0
																}
															}
														}
													}
													JOINT Model27
													{
														OFFSET 9.34247 3.34117 -0.239273
														CHANNELS 3 Zrotation Xrotation Yrotation
														JOINT Model28
														{
															OFFSET 3.2826 2.28882e-005 0
															CHANNELS 3 Zrotation Xrotation Yrotation
															JOINT Model29
															{
																OFFSET 2.1292 0 0
																CHANNELS 3 Zrotation Xrotation Yrotation
																End Site
																{
																	OFFSET 0 0 0
																}
															}
														}
													}
												}
											}
										}
									}
								}
							}
						}
					}
					JOINT Model30
					{
						OFFSET 10.8223 0.4179 -3.51106
						CHANNELS 3 Zrotation Xrotation Yrotation
						JOINT Model31
						{
							OFFSET 6.07944 0 0
							CHANNELS 3 Zrotation Xrotation Yrotation
							JOINT Model32
							{
								OFFSET 0.27742 -10.39 0.051239
								CHANNELS 3 Zrotation Xrotation Yrotation
								JOINT Model33
								{
									OFFSET 3.4391 0.282043 -1.86678
									CHANNELS 3 Zrotation Xrotation Yrotation
									JOINT Model34
									{
										OFFSET -13.0269 0 0
										CHANNELS 3 Zrotation Xrotation Yrotation
										JOINT Model35
										{
											OFFSET -10.8866 0 0
											CHANNELS 3 Zrotation Xrotation Yrotation
											JOINT Model36
											{
												OFFSET -16.7317 0 0
												CHANNELS 3 Zrotation Xrotation Yrotation
												JOINT Model37
												{
													OFFSET -11.8292 0 0
													CHANNELS 3 Zrotation Xrotation Yrotation
													JOINT Model38
													{
														OFFSET -4.82751 3.73566 0.836517
														CHANNELS 3 Zrotation Xrotation Yrotation
														JOINT Model39
														{
															OFFSET -3.75311 0.0582886 0.0186462
															CHANNELS 3 Zrotation Xrotation Yrotation
															JOINT Model40
															{
																OFFSET -2.88689 -0.0192337 -0.014801
																CHANNELS 3 Zrotation Xrotation Yrotation
																End Site
																{
																	OFFSET 0 0 0
																}
															}
														}
													}
													JOINT Model41
													{
														OFFSET -9.72197 3.06459 -0.23877
														CHANNELS 3 Zrotation Xrotation Yrotation
														JOINT Model42
														{
															OFFSET -4.6113 0 0
															CHANNELS 3 Zrotation Xrotation Yrotation
															JOINT Model43
															{
																OFFSET -2.8969 0 0
																CHANNELS 3 Zrotation Xrotation Yrotation
																End Site
																{
																	OFFSET 0 0 0
																}
															}
														}
													}
													JOINT Model44
													{
														OFFSET -9.5443 0.745064 -0.588943
														CHANNELS 3 Zrotation Xrotation Yrotation
														JOINT Model45
														{
															OFFSET -5.33978 0 0
															CHANNELS 3 Zrotation Xrotation Yrotation
															JOINT Model46
															{
																OFFSET -3.03619 -1.52588e-005 0
																CHANNELS 3 Zrotation Xrotation Yrotation
																End Site
																{
																	OFFSET 0 0 0
																}
															}
														}
													}
													JOINT Model47
													{
														OFFSET -9.47758 -1.51286 -0.485123
														CHANNELS 3 Zrotation Xrotation Yrotation
														JOINT Model48
														{
															OFFSET -4.96136 -1.52588e-005 0
															CHANNELS 3 Zrotation Xrotation Yrotation
															JOINT Model49
															{
																OFFSET -2.51965 0 0
																CHANNELS 3 Zrotation Xrotation Yrotation
																End Site
																{
																	OFFSET 0 0 0
																}
															}
														}
													}
													JOINT Model50
													{
														OFFSET -9.34245 -3.34118 0.239273
														CHANNELS 3 Zrotation Xrotation Yrotation
														JOINT Model51
														{
															OFFSET -3.28259 -2.28882e-005 0
															CHANNELS 3 Zrotation Xrotation Yrotation
															JOINT Model52
															{
																OFFSET -2.1292 0 0
																CHANNELS 3 Zrotation Xrotation Yrotation
																End Site
																{
																	OFFSET 0 0 0
																}
															}
														}
													}
												}
											}
										}
									}
								}
							}
						}
					}
				}
			}
		}
	}
	JOINT Model53
	{
		OFFSET 4.38026 -2.14632 -1.11516
		CHANNELS 3 Zrotation Xrotation Yrotation
		JOINT Model54
		{
			OFFSET 0 0 4.95
			CHANNELS 3 Zrotation Xrotation Yrotation
			JOINT Model55
			{
				OFFSET 18.5642 0 0
				CHANNELS 3 Zrotation Xrotation Yrotation
				JOINT Model56
				{
					OFFSET 21.2884 0 1.52588e-005
					CHANNELS 3 Zrotation Xrotation Yrotation
					JOINT Model57
					{
						OFFSET 30.261 0 0
						CHANNELS 3 Zrotation Xrotation Yrotation
						JOINT Model58
						{
							OFFSET 11.7259 0 0
							CHANNELS 3 Zrotation Xrotation Yrotation
							JOINT Model59
							{
								OFFSET 10.682 0 0
								CHANNELS 3 Zrotation Xrotation Yrotation
								End Site
								{
									OFFSET 0 0 0
								}
							}
						}
					}
				}
			}
		}
	}
	JOINT Model60
	{
		OFFSET -4.38026 -2.14632 -1.11516
		CHANNELS 3 Zrotation Xrotation Yrotation
		JOINT Model61
		{
			OFFSET 0 0 -4.95
			CHANNELS 3 Zrotation Xrotation Yrotation
			JOINT Model62
			{
				OFFSET -18.5642 0 0
				CHANNELS 3 Zrotation Xrotation Yrotation
				JOINT Model63
				{
					OFFSET -21.2884 0 -1.52588e-005
					CHANNELS 3 Zrotation Xrotation Yrotation
					JOINT Model64
					{
						OFFSET -30.261 0 0
						CHANNELS 3 Zrotation Xrotation Yrotation
						JOINT Model65
						{
							OFFSET -11.7259 0 0
							CHANNELS 3 Zrotation Xrotation Yrotation
							JOINT Model66
							{
								OFFSET -10.682 0 0
								CHANNELS 3 Zrotation Xrotation Yrotation
								End Site
								{
									OFFSET 0 0 0
								}
							}
						}
					}
				}
			}
		}
	}
}
MOTION
Frames: 4
Frame Time: 0.033333
-251.824 144.494 54.593 115.145 -39.8586 109.853 -180 4.29621e-031 -90 3.67498 -2.77214 2.16439 7.46476 -5.39804 4.50995 7.46475 -5.3976 4.50989 55.1523 9.66766 2.38492 -20.4985 12.08 -9.74378 120.092 75.5343 58.4939 34.3255 19.3659 -5.05619 -167.277 84.4999 48.8109 174.772 -13.6349 -55.1324 4.7879e-007 24.7698 3.46065e-005 -97.0257 12.0233 0.617645 -1.60028e-007 17.7243 -1.04355e-006 6.33749 -1.28229 -22.803 -72.0648 39.0385 39.3397 33.3638 2.10362 14.835 0.588947 0.308273 6.35287 -99.6409 81.413 100.35 -0.0181409 2.77572e-005 -0.117315 -0.124139 0.00241109 -0.799296 -79.8382 79.5773 80.5374 -0.000225718 -0.000220941 2.21024e-005 -0.000956147 0.00012287 -2.74454e-005 -66.7416 80.4058 67.2171 -0.000437076 1.59253e-005 -2.74164e-005 -0.000136528 -0.000109318 -5.47712e-005 -6.42159 81.2158 8.01779 -0.000218518 1.68672e-005 0.000212034 0.000901649 -0.000184857 -0.00021871 -59.9282 75.5373 58.5147 -18.8406 -3.85082 1.82908 -167.277 84.4999 48.8109 -147.496 -6.20717 10.7893 1.80194e-006 8.77213 3.11242e-005 -100.481 15.4024 0.621538 -1.12724e-005 22.854 5.93731e-006 -7.75655 1.00399 -14.7404 -72.0648 39.0385 39.3397 33.3638 2.10361 14.835 0.588946 0.308273 6.35287 -99.6409 81.413 100.35 -0.0181409 3.0091e-005 -0.117315 -0.124139 0.00241115 -0.799296 -79.8382 79.5773 80.5374 -0.000260667 -0.000218551 2.34977e-005 -0.000956255 0.000123017 -2.74191e-005 -66.7416 80.4058 67.2171 -0.000437156 1.48943e-005 -2.73921e-005 -0.000136636 -0.000109265 -5.47381e-005 -6.42159 81.2158 8.01779 -0.000218595 1.95827e-005 0.000212231 0.000901544 -0.00019124 -0.000218655 0.000811311 0.56661 89.91 -19.2299 -10.2595 -46.4689 3.80753e-007 12.6554 -9.55773e-010 73.4568 5.79721 -0.00805943 1.7108e-007 8.57852 2.11888e-007 -91.062 -13.6023 2.46938 -35.5275 -0.0931858 0.00498363 -180 -0.566579 -90.09 -35.1761 -5.51893 -44.812 -6.19687e-006 7.80949 -1.09301e-006 57.9476 11.8385 -0.00677428 5.57965e-007 17.655 9.88817e-007 -64.8878 6.09005 -4.3274 -35.6001 -0.298763 0.0150979 
-252.876 143.224 54.599 115.304 -38.8614 109.11 -180 4.29621e-031 -90 3.78693 -2.6145 1.86959 7.66874 -5.09864 3.91395 7.66874 -5.0982 3.91389 55.4905 8.35068 0.0342154 -19.4269 11.176 -9.34856 120.092 75.5343 58.4939 35.5558 20.7749 -5.44976 -167.277 84.4999 48.8109 173.44 -13.9871 -58.5673 6.11437e-007 24.5701 3.45512e-005 -88.0227 12.6817 0.624028 -1.43813e-007 18.5682 -1.0486e-006 2.90255 -0.586411 -22.6713 -72.0648 39.0385 39.3397 33.3638 2.10362 14.835 0.588947 0.308273 6.35287 -99.6409 81.413 100.35 -0.0181409 2.77572e-005 -0.117315 -0.124139 0.00241109 -0.799296 -79.8382 79.5773 80.5374 -0.000225718 -0.000220941 2.21024e-005 -0.000956147 0.00012287 -2.74454e-005 -66.7416 80.4058 67.2171 -0.000437076 1.59253e-005 -2.74164e-005 -0.000136528 -0.000109318 -5.47712e-005 -6.42159 81.2158 8.01779 -0.000218518 1.68672e-005 0.000212034 0.000901649 -0.000184857 -0.00021871 -59.9282 75.5373 58.5147 -17.3828 -2.37677 2.32191 -167.277 84.4999 48.8109 -151.699 -6.2441 10.4348 1.56781e-006 9.19759 3.11608e-005 -101.055 15.067 0.619356 -1.12172e-005 22.3618 5.9161e-006 -7.16012 0.826447 -13.1184 -72.0648 39.0385 39.3397 33.3638 2.10361 14.835 0.588946 0.308273 6.35287 -99.6409 81.413 100.35 -0.0181409 3.0091e-005 -0.117315 -0.124139 0.00241115 -0.799296 -79.8382 79.5773 80.5374 -0.000260667 -0.000218551 2.34977e-005 -0.000956255 0.000123017 -2.74191e-005 -66.7416 80.4058 67.2171 -0.000437156 1.48943e-005 -2.73921e-005 -0.000136636 -0.000109265 -5.47381e-005 -6.42159 81.2158 8.01779 -0.000218595 1.95827e-005 0.000212231 0.000901544 -0.00019124 -0.000218655 0.000811311 0.56661 89.91 -21.9587 -9.45992 -48.1293 3.80757e-007 12.8954 -9.56681e-010 75.0217 7.08111 -0.00807203 1.63841e-007 10.5034 2.13088e-007 -90.2352 -13.7234 2.63883 -35.5177 -0.0651245 0.0034941 -180 -0.566579 -90.09 -36.2102 -3.9203 -44.723 -6.16427e-006 9.49526 -1.09792e-006 60.6157 11.0989 -0.00694547 5.77995e-007 16.5424 9.82928e-007 -64.8882 2.4581 -2.22448 -35.8131 -0.902362 0.043652 
-254.063 142.125 54.754 115.572 -38.9658 108.793 -180 4.29621e-031 -90 3.89463 -2.4861 1.61657 7.86861 -4.85591 3.40318 7.86861 -4.85547 3.40312 54.6859 7.4186 -1.45598 -18.2644 10.5905 -9.72305 120.092 75.5343 58.4939 36.936 21.7365 -5.9175 -167.277 84.4999 48.8109 174.151 -16.0643 -60.8493 1.3974e-006 23.3736 3.42318e-005 -84.572 13.7377 0.624438 -1.13853e-007 20.1057 -1.05852e-006 1.86665 -0.360113 -21.8113 -72.0648 39.0385 39.3397 33.3638 2.10362 14.835 0.588947 0.308273 6.35287 -99.6409 81.413 100.35 -0.0181409 2.77572e-005 -0.117315 -0.124139 0.00241109 -0.799296 -79.8382 79.5773 80.5374 -0.000225718 -0.000220941 2.21024e-005 -0.000956147 0.00012287 -2.74454e-005 -66.7416 80.4058 67.2171 -0.000437076 1.59253e-005 -2.74164e-005 -0.000136528 -0.000109318 -5.47712e-005 -6.42159 81.2158 8.01779 -0.000218518 1.68672e-005 0.000212034 0.000901649 -0.000184857 -0.00021871 -59.9282 75.5373 58.5147 -15.2759 -0.361187 2.89897 -167.277 84.4999 48.8109 -155.802 -5.67841 10.1968 9.18011e-007 10.3729 3.12712e-005 -102.406 14.4498 0.614596 -1.11174e-005 21.4623 5.87886e-006 -6.53815 0.596031 -10.356 -72.0648 39.0385 39.3397 33.3638 2.10361 14.835 0.588946 0.308273 6.35287 -99.6409 81.413 100.35 -0.0181409 3.0091e-005 -0.117315 -0.124139 0.00241115 -0.799296 -79.8382 79.5773 80.5374 -0.000260667 -0.000218551 2.34977e-005 -0.000956255 0.000123017 -2.74191e-005 -66.7416 80.4058 67.2171 -0.000437156 1.48943e-005 -2.73921e-005 -0.000136636 -0.000109265 -5.47381e-005 -6.42159 81.2158 8.01779 -0.000218595 1.95827e-005 0.000212231 0.000901544 -0.00019124 -0.000218655 0.000811311 0.56661 89.91 -24.0551 -9.25536 -50.1327 3.80756e-007 12.8373 -9.5646e-010 75.7072 8.11147 -0.00809887 1.57966e-007 12.0485 2.14237e-007 -89.0923 -14.3842 3.03638 -35.5117 -0.0482142 0.00259271 -180 -0.566579 -90.09 -37.0534 -2.32189 -44.0968 -6.13272e-006 11.1113 -1.10356e-006 61.7064 11.2122 -0.00702008 5.74972e-007 16.7111 9.83793e-007 -65.2572 -3.74716 1.30363 -35.8628 -1.04333 0.0496274 
-255.387 141.493 54.993 115.665 -40.558 109.056 -180 4.29621e-031 -90 3.97412 -2.42508 1.46214 8.01931 -4.74244 3.09313 8.01931 -4.742 3.09307 52.6249 7.13859 -1.58741 -17.8424 10.6077 -11.3431 120.092 75.5343 58.4939 38.4428 22.2495 -6.43989 -167.277 84.4999 48.8109 176.393 -19.0658 -61.4475 2.49434e-006 21.6671 3.38116e-005 -86.8937 14.2137 0.627183 -9.91198e-008 20.8509 -1.06368e-006 3.9882 -0.726817 -20.7473 -72.0648 39.0385 39.3397 33.3638 2.10362 14.835 0.588947 0.308273 6.35287 -99.6409 81.413 100.35 -0.0181409 2.77572e-005 -0.117315 -0.124139 0.00241109 -0.799296 -79.8382 79.5773 80.5374 -0.000225718 -0.000220941 2.21024e-005 -0.000956147 0.00012287 -2.74454e-005 -66.7416 80.4058 67.2171 -0.000437076 1.59253e-005 -2.74164e-005 -0.000136528 -0.000109318 -5.47712e-005 -6.42159 81.2158 8.01779 -0.000218518 1.68672e-005 0.000212034 0.000901649 -0.000184857 -0.00021871 -59.9282 75.5373 58.5147 -12.3857 2.14672 3.43909 -167.277 84.4999 48.8109 -160.434 -4.5546 10.225 -8.59465e-008 12.1714 3.14675e-005 -103.779 14.8228 0.612286 -1.11823e-005 22.0487 5.90292e-006 -6.91935 0.440987 -7.31687 -72.0648 39.0385 39.3397 33.3638 2.10361 14.835 0.588946 0.308273 6.35287 -99.6409 81.413 100.35 -0.0181409 3.0091e-005 -0.117315 -0.124139 0.00241115 -0.799296 -79.8382 79.5773 80.5374 -0.000260667 -0.000218551 2.34977e-005 -0.000956255 0.000123017 -2.74191e-005 -66.7416 80.4058 67.2171 -0.000437156 1.48943e-005 -2.73921e-005 -0.000136636 -0.000109265 -5.47381e-005 -6.42159 81.2158 8.01779 -0.000218595 1.95827e-005 0.000212231 0.000901544 -0.00019124 -0.000218655 0.000811311 0.56661 89.91 -24.8808 -9.45542 -51.5455 3.80754e-007 12.7362 -9.56077e-010 75.4398 8.0911 -0.00803431 1.58082e-007 12.0181 2.14212e-007 -87.9248 -15.7187 3.67904 -35.5128 -0.0512825 0.00275636 -180 -0.566579 -90.09 -38.2985 -0.65983 -42.1415 -6.11238e-006 12.1437 -1.10766e-006 62.0166 11.4062 -0.00703938 5.69754e-007 17.0017 9.85306e-007 -65.0631 -8.58053 4.09306 -35.789 -0.83512 0.0407497 
